<?xml version="1.0" standalone="no"?>
<!DOCTYPE svg PUBLIC "-//W3C//DTD SVG 20010904//EN"
 "http://www.w3.org/TR/2001/REC-SVG-20010904/DTD/svg10.dtd">
<svg version="1.0" xmlns="http://www.w3.org/2000/svg"
 width="512.000000pt" height="512.000000pt" viewBox="0 0 512.000000 512.000000"
 preserveAspectRatio="xMidYMid meet">

<g transform="translate(0.000000,512.000000) scale(0.100000,-0.100000)"
fill="#000000" stroke="none">
<path d="M1847 4469 c-92 -22 -173 -88 -216 -179 l-26 -55 -3 -462 c-2 -255
-5 -463 -7 -463 -2 0 -43 10 -92 22 -124 31 -322 31 -447 0 -284 -71 -516
-260 -641 -524 -66 -140 -89 -244 -89 -408 0 -164 23 -268 89 -408 100 -211
252 -361 469 -463 85 -40 226 -79 284 -79 l32 0 0 -85 0 -85 80 0 80 0 0 85 0
85 33 0 c17 0 69 9 115 20 46 11 85 20 87 20 2 0 5 -208 7 -462 l3 -463 26
-55 c33 -70 89 -126 159 -159 l55 -26 1355 0 1355 0 55 26 c70 33 126 89 159
159 l26 55 0 1835 0 1835 -26 55 c-33 70 -89 126 -159 159 l-55 26 -340 2
c-297 3 -336 1 -309 -11 38 -17 82 -72 90 -114 l6 -31 268 -3 c253 -3 270 -4
296 -24 15 -11 37 -33 48 -48 l21 -27 0 -1819 0 -1819 -21 -27 c-11 -15 -33
-37 -48 -48 -27 -21 -30 -21 -1366 -21 -1336 0 -1339 0 -1366 21 -15 11 -37
33 -48 48 -20 27 -21 40 -24 520 l-3 493 55 36 c136 90 256 232 331 390 70
147 87 225 88 397 1 175 -20 273 -88 418 -74 157 -195 299 -331 389 l-54 36 0
487 0 487 23 34 c12 18 38 44 56 56 33 22 40 23 296 23 l263 0 6 35 c8 42 50
93 91 111 26 11 -16 13 -290 13 -176 -1 -337 -5 -358 -10z m-412 -1290 c83
-15 193 -60 277 -115 291 -188 425 -546 331 -882 -86 -309 -363 -539 -683
-570 -298 -29 -583 107 -743 354 -91 140 -128 267 -128 434 0 61 6 135 15 173
46 199 174 381 342 490 181 117 369 154 589 116z"/>
<path d="M1378 2463 l-258 -257 -98 97 c-93 91 -102 97 -141 97 -55 0 -81 -26
-81 -82 0 -41 4 -47 138 -180 136 -136 138 -138 182 -138 l45 0 297 298 c297
296 298 298 298 340 0 56 -26 82 -82 82 -42 0 -45 -3 -300 -257z"/>
<path d="M2587 4292 c-23 -25 -22 -85 1 -105 25 -23 85 -22 105 1 23 25 22 85
-1 105 -25 23 -85 22 -105 -1z"/>
<path d="M3707 4292 c-23 -25 -22 -85 1 -105 25 -23 85 -22 105 1 23 25 22 85
-1 105 -25 23 -85 22 -105 -1z"/>
<path d="M2783 3661 c-108 -37 -178 -110 -210 -220 -19 -65 -12 -190 15 -291
l17 -65 54 -3 54 -3 77 76 c52 52 84 76 96 73 13 -2 39 -43 80 -122 34 -65 63
-115 66 -110 3 5 33 123 68 262 l62 252 -27 40 c-51 73 -166 130 -259 130 -23
-1 -64 -9 -93 -19z"/>
<path d="M3423 3662 c-69 -25 -125 -65 -158 -113 l-27 -39 62 -252 c35 -139
65 -257 68 -262 3 -5 32 45 66 110 41 79 67 120 80 122 12 3 44 -21 96 -73
l77 -76 54 3 54 3 18 65 c12 42 19 104 20 175 2 100 0 115 -24 166 -69 146
-241 223 -386 171z"/>
<path d="M3136 3123 c-32 -131 -63 -246 -68 -256 -6 -11 -18 -17 -31 -15 -17
2 -38 35 -95 146 l-74 144 -73 -71 c-63 -61 -78 -71 -109 -71 -20 0 -36 -4
-36 -8 0 -5 18 -36 40 -70 91 -142 277 -281 457 -343 51 -17 55 -17 106 0 128
44 266 130 359 223 54 54 138 169 138 190 0 4 -16 8 -36 8 -31 0 -46 10 -109
71 l-73 71 -74 -144 c-57 -111 -78 -144 -95 -146 -13 -2 -25 4 -31 15 -5 10
-36 125 -68 256 -32 130 -61 237 -64 237 -3 0 -32 -107 -64 -237z"/>
</g>
</svg>
