<?xml version="1.0" encoding="UTF-8"?> <svg xmlns="http://www.w3.org/2000/svg" xmlns:xlink="http://www.w3.org/1999/xlink" version="1.1" id="Capa_1" x="0px" y="0px" viewBox="0 0 1920 682.1" style="enable-background:new 0 0 1920 682.1;" xml:space="preserve"> <style type="text/css"> .st0{display:none;} .st1{display:inline;} .st2{display:inline;clip-path:url(#SVGID_2_);fill:#162159;} .st3{display:inline;clip-path:url(#SVGID_2_);fill:#D4128A;} .st4{display:inline;clip-path:url(#SVGID_2_);fill:#929392;} .st5{clip-path:url(#SVGID_4_);} .st6{clip-path:url(#SVGID_6_);fill:#FFFFFF;} .st7{clip-path:url(#SVGID_6_);fill:#D4128A;} .st8{clip-path:url(#SVGID_6_);fill:#929392;} </style> <g class="st0"> <defs> <rect id="SVGID_1_" y="-188.41" width="1920" height="1080"></rect> </defs> <clipPath id="SVGID_2_" class="st1"> <use xlink:href="#SVGID_1_" style="overflow:visible;"></use> </clipPath> <path class="st2" d="M728.94,403.47c-13.62,0-24.5-3.84-32.62-11.53c-8.14-7.68-12.2-17.9-12.2-30.65V177.4 c0-12.74,3.73-22.74,11.21-29.99c7.47-7.25,17.35-10.87,29.66-10.87h59.98c29,0,53.61,5.83,73.82,17.47 c20.21,11.65,35.7,27.47,46.47,47.46c10.76,20,16.15,42.74,16.15,68.22c0,26.36-5.5,49.66-16.48,69.86 c-10.99,20.22-25.93,35.92-44.82,47.13c-18.9,11.2-39.99,16.81-63.28,16.81H728.94z M759.91,350.75h25.71 c25.05,0,44.16-7.14,57.34-21.42c13.18-14.27,19.54-34.16,19.11-59.65c-0.44-26.37-7.25-46.35-20.43-59.98 c-13.18-13.61-32.08-20.43-56.68-20.43h-25.04c-10.99,0-16.48,5.5-16.48,16.48v128.53C743.44,345.26,748.92,350.75,759.91,350.75"></path> <path class="st2" d="M1057.17,410.06c-29.89,0-55.03-8.9-75.47-26.69c-20.43-17.8-30.65-42.28-30.65-73.49 c0-32.51,9.99-58,29.99-76.46c19.99-18.46,45.15-27.68,75.47-27.68c21.52,0,39.32,3.96,53.39,11.86 c14.06,7.91,24.6,18.02,31.64,30.32c7.02,12.31,10.54,25.27,10.54,38.89c0,22.85-10.11,34.27-30.32,34.27h-109.41 c-3.52,0-5.27,2.21-5.27,6.59c0,10.12,5.6,18.13,16.8,24.06c11.21,5.93,23.83,8.9,37.9,8.9c8.79,0,17.57-1.21,26.37-3.62 c8.79-2.41,16.48-6.04,23.07-10.88c4.39-3.07,9-4.61,13.84-4.61c6.59,0,12.19,2.42,16.81,7.25c4.61,4.84,6.92,10.54,6.92,17.14 c0,7.91-4.18,15.38-12.52,22.41c-7.91,6.59-19.44,11.86-34.6,15.82C1086.5,408.09,1071.67,410.06,1057.17,410.06 M1091.44,282.86 c0.87,0,2.08-0.22,3.62-0.66c1.53-0.43,2.3-1.98,2.3-4.61c0-6.59-4.07-12.63-12.19-18.13c-8.14-5.49-18.57-8.24-31.31-8.24 c-13.62,0-24.71,2.97-33.28,8.9c-8.57,5.93-12.85,11.98-12.85,18.12c0,3.08,1.75,4.61,5.27,4.61H1091.44z"></path> <path class="st2" d="M1221.94,410.06c-8.35,0-15.39-2.42-21.1-7.25c-5.71-4.83-8.57-10.98-8.57-18.45V139.17 c0-7.02,2.74-13.07,8.24-18.12c5.49-5.05,12.62-7.58,21.42-7.58c8.34,0,15.16,2.53,20.43,7.58c5.28,5.06,7.91,11.32,7.91,18.78 V383.7c0,7.47-2.75,13.74-8.24,18.78C1236.54,407.53,1229.84,410.06,1221.94,410.06"></path> <path class="st2" d="M1410.44,410.06c-19.34,0-35.6-5.93-48.78-17.79v80.41c0,7.47-2.75,13.73-8.24,18.78 c-5.49,5.05-12.19,7.58-20.1,7.58c-8.35,0-15.38-2.42-21.09-7.25c-5.71-4.84-8.57-10.99-8.57-18.46v-238.6 c0-7.02,2.74-13.07,8.24-18.12c5.49-5.05,12.63-7.58,21.42-7.58c6.59,0,12.3,1.76,17.14,5.27c4.82,3.52,8.12,7.91,9.88,13.18 c14.93-14.5,32.3-21.75,52.07-21.75c29,0,52.17,9.12,69.53,27.35c17.35,18.24,26.03,42.95,26.03,74.15 c0,31.2-8.79,56.14-26.36,74.81C1464.04,400.74,1440.31,410.06,1410.44,410.06 M1405.82,356.68c13.62,0,24.49-4.72,32.63-14.17 c8.12-9.44,12.19-21.19,12.19-35.26c0-14.5-4.07-26.14-12.19-34.93c-8.13-8.79-19.01-13.18-32.63-13.18 c-13.18,0-23.84,4.4-31.97,13.18c-8.14,8.8-12.19,20.43-12.19,34.93c0,14.07,4.06,25.82,12.19,35.26 C1381.98,351.96,1392.64,356.68,1405.82,356.68"></path> <path class="st2" d="M1577.18,410.06c-8.35,0-15.38-2.42-21.09-7.25c-5.71-4.83-8.57-10.98-8.57-18.45V139.17 c0-7.02,2.74-13.07,8.24-18.12c5.49-5.05,12.63-7.58,21.42-7.58c8.34,0,15.16,2.53,20.43,7.58c5.27,5.06,7.91,11.32,7.91,18.78 v87.66c5.71-6.59,13.4-11.86,23.07-15.82c9.66-3.96,19.99-5.93,30.98-5.93c24.61,0,44.49,7.25,59.65,21.75 c15.16,14.5,22.73,37.57,22.73,69.21v88.98c0,7.03-2.75,12.85-8.23,17.47c-5.5,4.61-12.42,6.92-20.77,6.92 c-8.35,0-15.27-2.42-20.76-7.25c-5.5-4.83-8.24-10.98-8.24-18.45v-80.41c0-16.25-3.62-27.9-10.88-34.93 c-7.25-7.02-16.15-10.54-26.69-10.54c-10.99,0-20,3.63-27.02,10.88c-7.03,7.25-11.65,15.27-13.84,24.06v90.3 c0,7.47-2.75,13.74-8.24,18.78C1591.79,407.53,1585.09,410.06,1577.18,410.06"></path> <path class="st2" d="M1821.71,410.06c-8.35,0-15.39-2.42-21.1-7.25c-5.71-4.83-8.57-10.98-8.57-18.45V234.74 c0-7.02,2.74-13.07,8.24-18.12c5.49-5.05,12.62-7.58,21.42-7.58c8.78,0,15.7,2.53,20.76,7.58c5.05,5.06,7.58,11.32,7.58,18.78 v148.3c0,7.47-2.75,13.74-8.24,18.78C1836.31,407.53,1829.62,410.06,1821.71,410.06"></path> <path class="st3" d="M1860,145.36c0,21.4-17.35,38.74-38.74,38.74c-21.4,0-38.74-17.34-38.74-38.74c0-21.4,17.34-38.74,38.74-38.74 C1842.65,106.62,1860,123.97,1860,145.36"></path> <path class="st3" d="M243.58,470.45c-34.31,0-65.4-8.26-93.25-24.77c-27.83-16.51-49.86-39.66-66.05-69.45 C68.11,346.46,60,312.13,60,273.27c0-37.55,7.93-71.06,23.79-100.53c15.88-29.46,38.7-52.77,68.48-69.94 c29.79-17.15,66.05-25.74,108.79-25.74h88.39c18.14,0,32.71,5.34,43.71,16.03c11.02,10.68,16.52,25.42,16.52,44.2v271 c0,18.79-5.98,33.85-17.97,45.17c-11.98,11.34-28,17-48.08,17H243.58z"></path> <path class="st2" d="M304.66,667.15c-20.08,0-36.11-5.66-48.08-17c-11.99-11.32-17.97-26.37-17.97-45.16v-271 c0-18.78,5.5-33.51,16.51-44.2c11-10.68,25.57-16.03,43.71-16.03h88.39c42.74,0,79,8.59,108.79,25.74 c29.78,17.17,52.6,40.48,68.48,69.94c15.86,29.47,23.79,62.98,23.79,100.53c0,38.85-8.1,73.18-24.28,102.96 c-16.19,29.79-38.21,52.93-66.05,69.45c-27.85,16.51-58.93,24.77-93.25,24.77H304.66z"></path> <path class="st3" d="M588.03,77.06c0,35.66-28.91,64.57-64.57,64.57c-35.66,0-64.57-28.91-64.57-64.57 c0-35.66,28.91-64.57,64.57-64.57C559.12,12.5,588.03,41.4,588.03,77.06"></path> <path class="st3" d="M474.05,474.42c0,35.66-28.91,64.57-64.57,64.57c-35.66,0-64.57-28.91-64.57-64.57s28.91-64.57,64.57-64.57 C445.15,409.85,474.05,438.76,474.05,474.42"></path> <path class="st4" d="M696.36,594.58c-5.14-2.82-9.16-6.71-12.07-11.66c-2.92-4.95-4.38-10.52-4.38-16.72 c0-6.19,1.46-11.77,4.38-16.72c2.92-4.95,6.96-8.84,12.12-11.66c5.16-2.83,10.93-4.24,17.31-4.24c4.98,0,9.54,0.84,13.67,2.51 c4.13,1.67,7.65,4.15,10.57,7.43l-5.92,5.74c-4.8-5.04-10.78-7.56-17.95-7.56c-4.74,0-9.02,1.06-12.85,3.19 c-3.83,2.13-6.82,5.06-8.97,8.8c-2.16,3.73-3.24,7.91-3.24,12.52c0,4.62,1.08,8.8,3.24,12.53c2.16,3.74,5.15,6.67,8.97,8.79 c3.83,2.13,8.11,3.19,12.85,3.19c7.11,0,13.09-2.55,17.95-7.65l5.92,5.74c-2.92,3.28-6.46,5.77-10.61,7.47 c-4.16,1.7-8.73,2.55-13.71,2.55C707.25,598.82,701.49,597.41,696.36,594.58"></path> <path class="st4" d="M832.16,576.86h-39.18c0.54,4.25,2.42,7.67,5.6,10.25c3.19,2.58,7.16,3.87,11.89,3.87 c5.77,0,10.42-1.94,13.94-5.83l4.83,5.65c-2.19,2.55-4.9,4.5-8.16,5.83c-3.25,1.34-6.88,2.01-10.89,2.01 c-5.1,0-9.63-1.05-13.57-3.14c-3.95-2.1-7-5.03-9.16-8.79c-2.16-3.77-3.23-8.02-3.23-12.76c0-4.68,1.05-8.9,3.15-12.67 c2.09-3.77,4.98-6.7,8.65-8.79c3.67-2.1,7.82-3.14,12.44-3.14c4.62,0,8.73,1.05,12.35,3.14c3.61,2.1,6.44,5.02,8.47,8.79 c2.03,3.77,3.05,8.08,3.05,12.94C832.34,574.89,832.27,575.77,832.16,576.86 M797.94,560.55c-2.83,2.55-4.48,5.89-4.97,10.02h30.98 c-0.48-4.07-2.14-7.39-4.97-9.97c-2.82-2.58-6.33-3.87-10.52-3.87C804.27,556.73,800.77,558,797.94,560.55"></path> <path class="st4" d="M925.86,554.68c3.62,3.55,5.42,8.76,5.42,15.63v27.79h-8.74v-26.79c0-4.68-1.13-8.2-3.38-10.57 c-2.25-2.37-5.47-3.55-9.66-3.55c-4.74,0-8.47,1.38-11.2,4.15c-2.74,2.76-4.1,6.73-4.1,11.89v24.87h-8.75V549.8h8.38v7.29 c1.76-2.49,4.15-4.41,7.15-5.74c3.01-1.33,6.42-2,10.25-2C917.37,549.35,922.25,551.12,925.86,554.68"></path> <path class="st4" d="M1015.65,595.27c-1.28,1.1-2.86,1.93-4.74,2.51c-1.88,0.58-3.83,0.87-5.83,0.87c-4.86,0-8.62-1.31-11.3-3.92 c-2.67-2.61-4.01-6.34-4.01-11.21V557h-8.2v-7.2h8.2v-10.57h8.75v10.57h13.85v7.2h-13.85v26.15c0,2.61,0.65,4.61,1.96,6.01 c1.31,1.4,3.17,2.1,5.61,2.1c2.67,0,4.95-0.76,6.83-2.28L1015.65,595.27z"></path> <path class="st4" d="M1082.34,551.53c2.98-1.46,6.59-2.19,10.84-2.19v8.47c-0.49-0.06-1.16-0.09-2.01-0.09 c-4.74,0-8.46,1.41-11.16,4.24c-2.7,2.83-4.05,6.85-4.05,12.07v24.05h-8.75V549.8h8.38v8.11 C1077.12,555.12,1079.36,552.99,1082.34,551.53"></path> <path class="st4" d="M1152.22,595.45c-3.83-2.12-6.82-5.06-8.97-8.79c-2.16-3.74-3.24-7.97-3.24-12.71c0-4.74,1.08-8.97,3.24-12.71 c2.16-3.74,5.15-6.65,8.97-8.75c3.83-2.1,8.14-3.14,12.94-3.14s9.1,1.05,12.89,3.14c3.8,2.1,6.78,5.01,8.93,8.75 c2.16,3.73,3.24,7.97,3.24,12.71c0,4.74-1.08,8.97-3.24,12.71c-2.15,3.74-5.13,6.67-8.93,8.79c-3.8,2.13-8.1,3.19-12.89,3.19 S1156.05,597.58,1152.22,595.45 M1173.5,588.84c2.46-1.43,4.39-3.43,5.79-6.01c1.4-2.58,2.09-5.54,2.09-8.88 c0-3.34-0.7-6.3-2.09-8.88c-1.4-2.58-3.33-4.57-5.79-5.97c-2.46-1.4-5.24-2.09-8.34-2.09c-3.09,0-5.88,0.7-8.34,2.09 c-2.46,1.4-4.41,3.39-5.83,5.97c-1.43,2.58-2.14,5.54-2.14,8.88c0,3.34,0.71,6.3,2.14,8.88c1.43,2.58,3.37,4.59,5.83,6.01 c2.46,1.43,5.24,2.14,8.34,2.14C1168.26,590.99,1171.04,590.27,1173.5,588.84"></path> <path class="st4" d="M1321.37,594.58c-5.14-2.82-9.16-6.71-12.07-11.66c-2.92-4.95-4.38-10.52-4.38-16.72 c0-6.19,1.46-11.77,4.38-16.72c2.92-4.95,6.96-8.84,12.12-11.66c5.16-2.83,10.93-4.24,17.31-4.24c4.98,0,9.54,0.84,13.67,2.51 c4.13,1.67,7.65,4.15,10.57,7.43l-5.92,5.74c-4.8-5.04-10.78-7.56-17.95-7.56c-4.74,0-9.02,1.06-12.85,3.19 c-3.83,2.13-6.82,5.06-8.97,8.8c-2.16,3.73-3.24,7.91-3.24,12.52c0,4.62,1.08,8.8,3.24,12.53c2.16,3.74,5.15,6.67,8.97,8.79 c3.83,2.13,8.11,3.19,12.85,3.19c7.11,0,13.09-2.55,17.95-7.65l5.92,5.74c-2.92,3.28-6.46,5.77-10.61,7.47 c-4.16,1.7-8.73,2.55-13.71,2.55C1332.26,598.82,1326.5,597.41,1321.37,594.58"></path> <rect x="1415.72" y="530.49" class="st4" width="8.75" height="67.6"></rect> <path class="st4" d="M1492.08,530.94h11.11l-15.3,11.84h-8.2L1492.08,530.94z M1482.14,549.8h8.75v48.29h-8.75V549.8z"></path> <path class="st4" d="M1588.97,554.68c3.62,3.55,5.42,8.76,5.42,15.63v27.79h-8.74v-26.79c0-4.68-1.13-8.2-3.38-10.57 c-2.25-2.37-5.47-3.55-9.66-3.55c-4.74,0-8.47,1.38-11.2,4.15c-2.74,2.76-4.1,6.73-4.1,11.89v24.87h-8.75V549.8h8.38v7.29 c1.76-2.49,4.15-4.41,7.15-5.74c3.01-1.33,6.42-2,10.25-2C1580.48,549.35,1585.36,551.12,1588.97,554.68"></path> <path class="st4" d="M1651.74,538.87c-1.12-1.1-1.68-2.43-1.68-4.01c0-1.58,0.56-2.93,1.68-4.06c1.12-1.12,2.53-1.69,4.24-1.69 c1.7,0,3.11,0.53,4.24,1.6c1.12,1.06,1.68,2.39,1.68,3.96c0,1.64-0.56,3.02-1.68,4.14c-1.12,1.13-2.53,1.69-4.24,1.69 C1654.28,540.51,1652.87,539.96,1651.74,538.87 M1651.61,549.8h8.75v48.29h-8.75V549.8z"></path> <path class="st4" d="M1725.91,595.45c-3.86-2.12-6.88-5.06-9.07-8.79c-2.19-3.74-3.28-7.97-3.28-12.71c0-4.74,1.09-8.97,3.28-12.71 c2.18-3.74,5.21-6.65,9.07-8.75c3.85-2.1,8.24-3.14,13.16-3.14c4.38,0,8.28,0.88,11.71,2.64c3.43,1.76,6.09,4.31,7.97,7.65 l-6.65,4.28c-1.52-2.31-3.4-4.04-5.65-5.19c-2.25-1.16-4.74-1.73-7.47-1.73c-3.16,0-6,0.7-8.52,2.1c-2.52,1.4-4.5,3.39-5.93,5.97 c-1.43,2.58-2.14,5.54-2.14,8.88c0,3.4,0.71,6.39,2.14,8.97c1.43,2.58,3.41,4.57,5.93,5.97c2.52,1.4,5.36,2.1,8.52,2.1 c2.73,0,5.22-0.58,7.47-1.73c2.25-1.15,4.13-2.89,5.65-5.19l6.65,4.19c-1.88,3.34-4.54,5.91-7.97,7.7 c-3.43,1.79-7.33,2.69-11.71,2.69C1734.16,598.64,1729.77,597.58,1725.91,595.45"></path> <path class="st4" d="M1818.07,595.45c-3.83-2.12-6.82-5.06-8.97-8.79c-2.16-3.74-3.24-7.97-3.24-12.71c0-4.74,1.08-8.97,3.24-12.71 c2.16-3.74,5.15-6.65,8.97-8.75c3.83-2.1,8.14-3.14,12.94-3.14s9.1,1.05,12.89,3.14c3.8,2.1,6.78,5.01,8.93,8.75 c2.16,3.73,3.24,7.97,3.24,12.71c0,4.74-1.08,8.97-3.24,12.71c-2.15,3.74-5.13,6.67-8.93,8.79c-3.8,2.13-8.09,3.19-12.89,3.19 S1821.9,597.58,1818.07,595.45 M1839.34,588.84c2.46-1.43,4.39-3.43,5.79-6.01c1.4-2.58,2.09-5.54,2.09-8.88 c0-3.34-0.7-6.3-2.09-8.88c-1.4-2.58-3.33-4.57-5.79-5.97c-2.46-1.4-5.24-2.09-8.34-2.09c-3.1,0-5.88,0.7-8.34,2.09 c-2.46,1.4-4.41,3.39-5.83,5.97c-1.43,2.58-2.14,5.54-2.14,8.88c0,3.34,0.71,6.3,2.14,8.88c1.43,2.58,3.37,4.59,5.83,6.01 c2.46,1.43,5.24,2.14,8.34,2.14C1834.1,590.99,1836.88,590.27,1839.34,588.84"></path> </g> <g> <g> <defs> <rect id="SVGID_3_" x="60" y="12.73" width="1800" height="654.65"></rect> </defs> <clipPath id="SVGID_4_"> <use xlink:href="#SVGID_3_" style="overflow:visible;"></use> </clipPath> <g class="st5"> <defs> <rect id="SVGID_5_" x="0" y="-184.52" width="1920" height="1080"></rect> </defs> <clipPath id="SVGID_6_"> <use xlink:href="#SVGID_5_" style="overflow:visible;"></use> </clipPath> <path class="st6" d="M728.94,403.71c-13.62,0-24.5-3.84-32.62-11.53c-8.13-7.68-12.2-17.9-12.2-30.65V177.64 c0-12.74,3.73-22.74,11.21-29.99c7.47-7.25,17.35-10.87,29.66-10.87h59.98c29,0,53.61,5.83,73.82,17.47 c20.21,11.65,35.7,27.47,46.47,47.46c10.76,20,16.15,42.74,16.15,68.22c0,26.36-5.5,49.66-16.48,69.86 c-10.99,20.22-25.93,35.92-44.82,47.13c-18.9,11.2-39.99,16.81-63.28,16.81H728.94z M759.92,350.98h25.71 c25.05,0,44.16-7.14,57.34-21.42c13.18-14.27,19.55-34.16,19.12-59.65c-0.44-26.36-7.25-46.35-20.43-59.98 c-13.18-13.61-32.08-20.43-56.68-20.43h-25.04c-10.99,0-16.48,5.5-16.48,16.48V334.5C743.44,345.49,748.93,350.98,759.92,350.98"></path> <path class="st6" d="M1057.17,410.3c-29.89,0-55.03-8.9-75.47-26.69c-20.43-17.8-30.65-42.28-30.65-73.49 c0-32.51,9.99-58,29.99-76.46c19.99-18.46,45.15-27.68,75.47-27.68c21.52,0,39.32,3.96,53.38,11.86 c14.06,7.91,24.61,18.02,31.64,30.32c7.02,12.31,10.54,25.27,10.54,38.89c0,22.85-10.11,34.27-30.32,34.27h-109.41 c-3.52,0-5.27,2.21-5.27,6.59c0,10.12,5.6,18.13,16.8,24.06c11.21,5.93,23.83,8.9,37.9,8.9c8.79,0,17.57-1.21,26.36-3.62 c8.79-2.41,16.48-6.04,23.07-10.88c4.39-3.07,9-4.61,13.84-4.61c6.59,0,12.19,2.42,16.81,7.25c4.61,4.84,6.92,10.54,6.92,17.14 c0,7.91-4.18,15.39-12.52,22.41c-7.91,6.59-19.44,11.86-34.6,15.82C1086.5,408.32,1071.67,410.3,1057.17,410.3 M1091.45,283.09 c0.87,0,2.08-0.22,3.62-0.66c1.53-0.43,2.3-1.98,2.3-4.61c0-6.59-4.07-12.63-12.19-18.13c-8.13-5.49-18.57-8.24-31.31-8.24 c-13.62,0-24.71,2.97-33.28,8.9c-8.57,5.93-12.85,11.98-12.85,18.12c0,3.08,1.75,4.61,5.27,4.61H1091.45z"></path> <path class="st6" d="M1221.94,410.3c-8.35,0-15.39-2.42-21.1-7.25c-5.71-4.83-8.57-10.98-8.57-18.45V139.41 c0-7.02,2.74-13.07,8.24-18.12c5.49-5.05,12.62-7.58,21.42-7.58c8.34,0,15.16,2.53,20.43,7.58c5.28,5.06,7.91,11.32,7.91,18.78 v243.87c0,7.48-2.75,13.74-8.23,18.78C1236.54,407.77,1229.85,410.3,1221.94,410.3"></path> <path class="st6" d="M1410.44,410.3c-19.34,0-35.59-5.93-48.78-17.79v80.41c0,7.47-2.75,13.73-8.24,18.78 c-5.49,5.05-12.19,7.58-20.1,7.58c-8.35,0-15.38-2.42-21.09-7.25c-5.71-4.84-8.57-10.99-8.57-18.46v-238.6 c0-7.02,2.74-13.07,8.24-18.12c5.49-5.05,12.63-7.58,21.42-7.58c6.59,0,12.3,1.76,17.14,5.27c4.83,3.52,8.12,7.91,9.88,13.18 c14.93-14.5,32.3-21.75,52.07-21.75c29,0,52.17,9.12,69.53,27.35c17.35,18.24,26.03,42.96,26.03,74.15 c0,31.2-8.8,56.14-26.36,74.81C1464.04,400.97,1440.32,410.3,1410.44,410.3 M1405.82,356.91c13.62,0,24.49-4.72,32.63-14.17 c8.12-9.44,12.19-21.19,12.19-35.26c0-14.5-4.07-26.14-12.19-34.93c-8.14-8.79-19.01-13.18-32.63-13.18 c-13.18,0-23.84,4.4-31.97,13.18c-8.14,8.8-12.19,20.43-12.19,34.93c0,14.07,4.06,25.82,12.19,35.26 C1381.99,352.19,1392.64,356.91,1405.82,356.91"></path> <path class="st6" d="M1577.19,410.3c-8.35,0-15.38-2.42-21.09-7.25c-5.71-4.83-8.57-10.98-8.57-18.45V139.41 c0-7.02,2.73-13.07,8.23-18.12c5.49-5.05,12.63-7.58,21.42-7.58c8.34,0,15.16,2.53,20.43,7.58c5.27,5.06,7.91,11.32,7.91,18.78 v87.66c5.7-6.59,13.4-11.86,23.07-15.82c9.66-3.96,19.99-5.93,30.98-5.93c24.61,0,44.49,7.25,59.65,21.75 c15.16,14.5,22.74,37.57,22.74,69.21v88.98c0,7.03-2.75,12.85-8.24,17.47c-5.5,4.61-12.42,6.92-20.76,6.92 c-8.35,0-15.27-2.42-20.76-7.25c-5.5-4.83-8.24-10.98-8.24-18.45v-80.41c0-16.25-3.62-27.9-10.88-34.93 c-7.25-7.02-16.15-10.54-26.69-10.54c-10.99,0-20,3.63-27.02,10.88c-7.03,7.25-11.65,15.27-13.84,24.06v90.3 c0,7.48-2.75,13.74-8.24,18.78C1591.8,407.77,1585.1,410.3,1577.19,410.3"></path> <path class="st6" d="M1821.72,410.3c-8.35,0-15.39-2.42-21.1-7.25c-5.71-4.83-8.57-10.98-8.57-18.45V234.98 c0-7.02,2.74-13.07,8.24-18.12c5.49-5.05,12.62-7.58,21.42-7.58c8.78,0,15.7,2.53,20.76,7.58c5.05,5.06,7.58,11.32,7.58,18.78 v148.3c0,7.48-2.75,13.74-8.24,18.78C1836.32,407.77,1829.62,410.3,1821.72,410.3"></path> <path class="st7" d="M1860,145.59c0,21.4-17.35,38.74-38.74,38.74c-21.4,0-38.74-17.34-38.74-38.74 c0-21.4,17.34-38.74,38.74-38.74C1842.65,106.85,1860,124.2,1860,145.59"></path> <path class="st7" d="M243.58,470.68c-34.31,0-65.4-8.26-93.25-24.77c-27.84-16.51-49.86-39.66-66.05-69.45 C68.1,346.69,60,312.36,60,273.5c0-37.55,7.93-71.06,23.79-100.53c15.88-29.46,38.7-52.77,68.48-69.94 c29.79-17.15,66.05-25.74,108.79-25.74h88.39c18.14,0,32.71,5.34,43.71,16.03c11.02,10.69,16.51,25.42,16.51,44.2v272.56 c-20.78,0-29.4,4.52-41.89,15.29c-24.22,20.88-22.87,45.31-22.87,45.31H243.58z"></path> <path class="st7" d="M588.03,77.29c0,35.66-28.91,64.57-64.57,64.57c-35.66,0-64.57-28.91-64.57-64.57 c0-35.66,28.91-64.57,64.57-64.57C559.12,12.73,588.03,41.64,588.03,77.29"></path> <path class="st6" d="M564.49,369.67c-15.88-29.46-38.7-52.77-68.48-69.94c-29.79-17.15-66.05-25.74-108.79-25.74h-88.39 c-18.14,0-32.71,5.35-43.71,16.03c-11.02,10.69-16.51,25.42-16.51,44.2v271c0,18.79,5.98,33.85,17.97,45.17 c11.98,11.34,28,17,48.08,17H404.7c34.31,0,65.4-8.26,93.25-24.77c27.84-16.51,49.86-39.66,66.05-69.45 c16.18-29.78,24.28-64.11,24.28-102.96C588.28,432.65,580.35,399.14,564.49,369.67 M409.49,539.21 c-35.66,0-64.57-28.91-64.57-64.57c0-35.66,28.91-64.57,64.57-64.57s64.57,28.91,64.57,64.57 C474.05,510.31,445.15,539.21,409.49,539.21"></path> <path class="st8" d="M696.36,594.81c-5.14-2.82-9.16-6.71-12.07-11.66c-2.92-4.95-4.38-10.52-4.38-16.72 c0-6.19,1.46-11.77,4.38-16.72c2.92-4.95,6.96-8.84,12.12-11.66c5.16-2.83,10.93-4.24,17.31-4.24c4.98,0,9.54,0.84,13.67,2.51 c4.13,1.67,7.65,4.15,10.57,7.43l-5.92,5.74c-4.8-5.04-10.78-7.56-17.95-7.56c-4.74,0-9.02,1.06-12.85,3.19 c-3.83,2.13-6.81,5.06-8.97,8.8c-2.16,3.73-3.23,7.91-3.23,12.52c0,4.62,1.08,8.8,3.23,12.53c2.16,3.74,5.15,6.67,8.97,8.79 c3.83,2.13,8.11,3.19,12.85,3.19c7.11,0,13.09-2.55,17.95-7.65l5.92,5.74c-2.92,3.28-6.46,5.77-10.61,7.47 c-4.16,1.7-8.74,2.55-13.71,2.55C707.25,599.05,701.49,597.64,696.36,594.81"></path> <path class="st8" d="M832.16,577.09h-39.18c0.54,4.25,2.42,7.67,5.6,10.25c3.19,2.59,7.16,3.87,11.89,3.87 c5.77,0,10.42-1.94,13.94-5.83l4.83,5.65c-2.18,2.55-4.9,4.5-8.16,5.83c-3.25,1.34-6.88,2.01-10.89,2.01 c-5.1,0-9.63-1.05-13.57-3.14c-3.95-2.1-7-5.03-9.16-8.79c-2.16-3.77-3.23-8.02-3.23-12.76c0-4.68,1.05-8.9,3.15-12.67 c2.09-3.77,4.98-6.7,8.65-8.79c3.67-2.1,7.82-3.14,12.44-3.14c4.62,0,8.73,1.05,12.35,3.14c3.61,2.1,6.44,5.02,8.47,8.79 c2.03,3.77,3.05,8.08,3.05,12.94C832.34,575.12,832.28,576,832.16,577.09 M797.95,560.78c-2.83,2.55-4.48,5.89-4.97,10.02h30.98 c-0.49-4.07-2.14-7.39-4.97-9.97c-2.82-2.58-6.33-3.87-10.52-3.87C804.28,556.95,800.77,558.23,797.95,560.78"></path> <path class="st8" d="M925.86,554.9c3.62,3.55,5.42,8.76,5.42,15.63v27.79h-8.74v-26.79c0-4.68-1.13-8.2-3.38-10.57 c-2.25-2.37-5.47-3.55-9.66-3.55c-4.74,0-8.47,1.38-11.2,4.15c-2.74,2.76-4.1,6.73-4.1,11.89v24.87h-8.75v-48.29h8.38v7.29 c1.76-2.49,4.15-4.4,7.15-5.74c3.01-1.33,6.42-2,10.25-2C917.37,549.58,922.25,551.35,925.86,554.9"></path> <path class="st8" d="M1015.66,595.49c-1.28,1.1-2.86,1.93-4.74,2.51c-1.88,0.58-3.83,0.87-5.83,0.87c-4.86,0-8.62-1.31-11.3-3.92 c-2.67-2.61-4.01-6.35-4.01-11.21v-26.52h-8.2v-7.2h8.2v-10.57h8.75v10.57h13.85v7.2h-13.85v26.15c0,2.61,0.65,4.61,1.95,6.01 c1.31,1.4,3.18,2.1,5.61,2.1c2.67,0,4.95-0.76,6.83-2.28L1015.66,595.49z"></path> <path class="st8" d="M1082.35,551.76c2.98-1.46,6.59-2.19,10.84-2.19v8.47c-0.49-0.06-1.16-0.09-2.01-0.09 c-4.73,0-8.46,1.41-11.16,4.24c-2.7,2.83-4.05,6.85-4.05,12.07v24.05h-8.75v-48.29h8.38v8.11 C1077.12,555.35,1079.37,553.22,1082.35,551.76"></path> <path class="st8" d="M1152.23,595.68c-3.83-2.12-6.82-5.06-8.97-8.79c-2.16-3.74-3.23-7.97-3.23-12.71 c0-4.74,1.08-8.97,3.23-12.71c2.16-3.74,5.15-6.65,8.97-8.75c3.83-2.1,8.14-3.14,12.94-3.14s9.1,1.05,12.89,3.14 c3.8,2.1,6.78,5.01,8.93,8.75c2.16,3.73,3.24,7.97,3.24,12.71c0,4.74-1.08,8.97-3.24,12.71c-2.15,3.74-5.13,6.67-8.93,8.79 c-3.8,2.13-8.1,3.19-12.89,3.19S1156.06,597.81,1152.23,595.68 M1173.5,589.07c2.46-1.43,4.39-3.43,5.79-6.01 c1.4-2.58,2.1-5.54,2.1-8.88c0-3.34-0.7-6.3-2.1-8.88c-1.4-2.58-3.33-4.57-5.79-5.97c-2.46-1.4-5.24-2.09-8.34-2.09 c-3.1,0-5.88,0.7-8.34,2.09c-2.46,1.4-4.4,3.39-5.83,5.97c-1.43,2.58-2.14,5.54-2.14,8.88c0,3.34,0.71,6.3,2.14,8.88 c1.43,2.58,3.37,4.59,5.83,6.01c2.46,1.43,5.24,2.14,8.34,2.14C1168.27,591.21,1171.04,590.5,1173.5,589.07"></path> <path class="st8" d="M1321.38,594.81c-5.14-2.82-9.16-6.71-12.07-11.66c-2.91-4.95-4.38-10.52-4.38-16.72 c0-6.19,1.46-11.77,4.38-16.72c2.92-4.95,6.96-8.84,12.12-11.66c5.16-2.83,10.93-4.24,17.31-4.24c4.98,0,9.54,0.84,13.67,2.51 c4.13,1.67,7.65,4.15,10.57,7.43l-5.92,5.74c-4.8-5.04-10.78-7.56-17.95-7.56c-4.74,0-9.02,1.06-12.85,3.19 c-3.83,2.13-6.81,5.06-8.97,8.8c-2.16,3.73-3.23,7.91-3.23,12.52c0,4.62,1.08,8.8,3.23,12.53c2.16,3.74,5.15,6.67,8.97,8.79 c3.83,2.13,8.11,3.19,12.85,3.19c7.11,0,13.09-2.55,17.95-7.65l5.92,5.74c-2.92,3.28-6.46,5.77-10.61,7.47 c-4.16,1.7-8.74,2.55-13.71,2.55C1332.27,599.05,1326.51,597.64,1321.38,594.81"></path> <rect x="1415.72" y="530.72" class="st8" width="8.75" height="67.6"></rect> <path class="st8" d="M1492.08,531.17h11.11l-15.3,11.84h-8.2L1492.08,531.17z M1482.15,550.03h8.75v48.29h-8.75V550.03z"></path> <path class="st8" d="M1588.98,554.9c3.62,3.55,5.42,8.76,5.42,15.63v27.79h-8.74v-26.79c0-4.68-1.13-8.2-3.38-10.57 c-2.25-2.37-5.47-3.55-9.66-3.55c-4.74,0-8.47,1.38-11.2,4.15c-2.74,2.76-4.1,6.73-4.1,11.89v24.87h-8.75v-48.29h8.38v7.29 c1.76-2.49,4.15-4.4,7.15-5.74c3.01-1.33,6.42-2,10.25-2C1580.49,549.58,1585.36,551.35,1588.98,554.9"></path> <path class="st8" d="M1651.75,539.1c-1.12-1.09-1.69-2.43-1.69-4.01c0-1.58,0.56-2.93,1.69-4.06c1.12-1.12,2.53-1.69,4.24-1.69 c1.7,0,3.11,0.53,4.24,1.6c1.12,1.06,1.69,2.39,1.69,3.96c0,1.64-0.56,3.02-1.69,4.15c-1.12,1.12-2.53,1.69-4.24,1.69 C1654.29,540.74,1652.88,540.19,1651.75,539.1 M1651.62,550.03h8.75v48.29h-8.75V550.03z"></path> <path class="st8" d="M1725.92,595.68c-3.86-2.12-6.88-5.06-9.07-8.79c-2.19-3.74-3.28-7.97-3.28-12.71 c0-4.74,1.1-8.97,3.28-12.71c2.18-3.74,5.21-6.65,9.07-8.75c3.85-2.1,8.24-3.14,13.16-3.14c4.38,0,8.28,0.88,11.71,2.64 c3.43,1.76,6.09,4.31,7.97,7.65l-6.65,4.28c-1.52-2.31-3.4-4.04-5.65-5.19c-2.25-1.16-4.74-1.73-7.47-1.73 c-3.16,0-6,0.7-8.52,2.1c-2.52,1.4-4.5,3.39-5.93,5.97c-1.43,2.58-2.14,5.54-2.14,8.88c0,3.4,0.71,6.39,2.14,8.97 c1.43,2.58,3.4,4.57,5.93,5.97c2.52,1.4,5.36,2.1,8.52,2.1c2.73,0,5.22-0.58,7.47-1.73c2.25-1.15,4.13-2.89,5.65-5.19l6.65,4.19 c-1.88,3.34-4.54,5.91-7.97,7.7s-7.33,2.69-11.71,2.69C1734.16,598.87,1729.77,597.81,1725.92,595.68"></path> <path class="st8" d="M1818.07,595.68c-3.83-2.12-6.82-5.06-8.97-8.79c-2.16-3.74-3.24-7.97-3.24-12.71 c0-4.74,1.08-8.97,3.24-12.71c2.16-3.74,5.15-6.65,8.97-8.75c3.83-2.1,8.14-3.14,12.94-3.14s9.1,1.05,12.89,3.14 c3.8,2.1,6.78,5.01,8.93,8.75c2.16,3.73,3.24,7.97,3.24,12.71c0,4.74-1.08,8.97-3.24,12.71c-2.15,3.74-5.13,6.67-8.93,8.79 c-3.8,2.13-8.1,3.19-12.89,3.19S1821.9,597.81,1818.07,595.68 M1839.35,589.07c2.46-1.43,4.39-3.43,5.79-6.01 c1.4-2.58,2.09-5.54,2.09-8.88c0-3.34-0.7-6.3-2.09-8.88c-1.4-2.58-3.33-4.57-5.79-5.97c-2.46-1.4-5.24-2.09-8.34-2.09 c-3.1,0-5.88,0.7-8.34,2.09c-2.46,1.4-4.4,3.39-5.83,5.97c-1.43,2.58-2.14,5.54-2.14,8.88c0,3.34,0.71,6.3,2.14,8.88 c1.43,2.58,3.37,4.59,5.83,6.01c2.46,1.43,5.24,2.14,8.34,2.14C1834.11,591.21,1836.89,590.5,1839.35,589.07"></path> </g> </g> </g> </svg> 